<?xml version="1.0" standalone="no"?>
<!DOCTYPE svg PUBLIC "-//W3C//DTD SVG 20010904//EN"
 "http://www.w3.org/TR/2001/REC-SVG-20010904/DTD/svg10.dtd">
<svg version="1.0" xmlns="http://www.w3.org/2000/svg"
 width="76.000000pt" height="76.000000pt" viewBox="0 0 76.000000 76.000000"
 preserveAspectRatio="xMidYMid meet">
<metadata>
Created by potrace 1.14, written by Peter Selinger 2001-2017
</metadata>
<g transform="translate(0.000000,76.000000) scale(0.100000,-0.100000)"
fill="#000000" stroke="none">
<path d="M162 707 c-36 -11 -91 -73 -112 -125 -22 -56 2 -213 29 -186 3 3 6
42 6 87 0 139 49 202 151 194 31 -2 59 -10 69 -20 9 -9 20 -17 25 -17 7 0 17
-20 25 -50 6 -20 19 -40 26 -40 5 0 14 12 19 26 16 40 50 85 61 79 5 -4 9 -1
9 5 0 7 7 9 16 6 8 -3 12 -2 9 4 -9 15 62 12 93 -4 41 -21 75 -62 68 -81 -3
-9 -2 -13 4 -10 11 7 25 -39 16 -54 -4 -5 -2 -12 3 -15 13 -9 -5 -78 -24 -92
-10 -8 -51 -12 -105 -12 -83 1 -89 2 -99 25 -14 31 -34 25 -42 -13 -6 -28 -7
-28 -9 -4 -1 14 -3 34 -5 45 -1 11 -4 34 -6 51 -5 46 -34 34 -45 -19 -8 -35
-13 -41 -30 -39 -16 2 -23 -4 -28 -22 -6 -24 -9 -25 -79 -24 -112 2 -140 -16
-118 -75 15 -39 108 -129 181 -175 36 -22 70 -46 77 -51 15 -13 60 -14 65 -2
2 5 9 11 16 13 8 2 28 16 44 31 17 15 37 26 44 23 9 -3 11 1 7 12 -6 14 -4 15
9 4 13 -11 16 -10 14 5 0 10 5 17 12 15 8 -1 11 1 8 6 -6 9 29 43 38 36 3 -2
4 -1 1 2 -2 4 11 25 30 47 27 31 32 43 24 54 -8 9 -15 10 -24 3 -6 -5 -16 -6
-20 -2 -5 4 -5 1 -1 -5 9 -17 -124 -151 -187 -187 l-47 -28 -72 46 c-93 59
-180 143 -176 170 2 15 12 21 42 24 28 3 36 0 31 -9 -6 -9 -4 -10 6 -3 19 12
52 12 61 -1 5 -6 8 -5 8 4 0 11 3 11 15 1 8 -7 15 -19 15 -26 0 -16 39 -19 41
-4 1 6 2 14 3 19 4 28 13 15 15 -22 1 -24 5 -55 9 -70 7 -26 8 -26 29 -12 15
10 19 21 16 36 -4 13 -2 20 4 16 5 -4 8 6 5 24 -3 18 0 29 7 29 7 0 10 3 8 8
-3 4 38 7 91 7 128 -1 141 2 164 39 16 25 19 44 15 103 -5 94 -41 157 -107
191 -70 36 -165 18 -208 -41 -13 -17 -15 -16 -45 9 -61 52 -122 65 -195 41z"/>
<path d="M196 642 c-3 -5 1 -9 9 -9 8 0 12 4 9 9 -3 4 -7 8 -9 8 -2 0 -6 -4
-9 -8z"/>
<path d="M533 335 c0 -8 4 -12 9 -9 5 3 6 10 3 15 -9 13 -12 11 -12 -6z"/>
</g>
</svg>
